# xmcd
#
# Track frame offsets: 
#        150
#        14037
#        29404
#        46593
#        62502
#        78449
#        96103
#        108851
#        122152
#        137619
#        152495
#        179622
#        190916
#
# Disc length: 2797 seconds
#
# Revision: 0
# Processed by: cddbd v1.5.2PL0 Copyright (c) Steve Scherf et al.
# Submitted via: ExactAudioCopyFreeDBPlugin 1.0
#
DISCID=a30aeb0d
DTITLE=Steve Passfield - Timberman
DYEAR=2010
DGENRE=Country
TTITLE0=Old Friends 
TTITLE1=Five Silver Stars 
TTITLE2=Timberman 
TTITLE3=These Two Hands
TTITLE4=Open Road 
TTITLE5=Life Goes On
TTITLE6=She Gets To Me 
TTITLE7=I Look To Your Love
TTITLE8=Melanie’s Dance
TTITLE9=Ever Changing Times 
TTITLE10=River Town
TTITLE11=Badl Bounce 
TTITLE12=The Man Who Was My Dad
EXTD=
EXTT0=
EXTT1=
EXTT2=
EXTT3=
EXTT4=
EXTT5=
EXTT6=
EXTT7=
EXTT8=
EXTT9=
EXTT10=
EXTT11=
EXTT12=
PLAYORDER=
